
        <svg xmlns="http://www.w3.org/2000/svg" xmlns:xlink="http://www.w3.org/1999/xlink" version="1.1" width="3147.783251231527" height="753.6945812807882" viewBox="0 0 3147.783251231527 753.6945812807882">
			
			<g transform="scale(7.389162561576355) translate(10, 10)">
				<defs id="SvgjsDefs1154"><linearGradient id="SvgjsLinearGradient1161"><stop id="SvgjsStop1162" stop-color="#8f5e25" offset="0"/><stop id="SvgjsStop1163" stop-color="#fbf4a1" offset="0.5"/><stop id="SvgjsStop1164" stop-color="#8f5e25" offset="1"/></linearGradient><linearGradient id="SvgjsLinearGradient1165"><stop id="SvgjsStop1166" stop-color="#8f5e25" offset="0"/><stop id="SvgjsStop1167" stop-color="#fbf4a1" offset="0.5"/><stop id="SvgjsStop1168" stop-color="#8f5e25" offset="1"/></linearGradient><linearGradient id="SvgjsLinearGradient1169"><stop id="SvgjsStop1170" stop-color="#8f5e25" offset="0"/><stop id="SvgjsStop1171" stop-color="#fbf4a1" offset="0.5"/><stop id="SvgjsStop1172" stop-color="#8f5e25" offset="1"/></linearGradient></defs><g id="SvgjsG1155" featureKey="symbolFeature-0" transform="matrix(0.6481481481481481,0,0,0.6481481481481481,-0.16333323937875252,9.472222160409999)" fill="#000"><path xmlns="http://www.w3.org/2000/svg" d="M100.252,47.517c0,1.995-1.596,3.591-3.591,3.591h-0.665L81.768,93.262c-0.532,1.462-1.861,2.394-3.324,2.394H22.725  c-1.463,0-2.792-0.932-3.325-2.394L4.64,51.108H3.842c-1.995,0-3.59-1.596-3.59-3.591s1.596-3.59,3.59-3.59h28.989l6.516-17.686  c-1.063-1.33-1.462-3.059-0.931-4.654l5.319-14.495C44.4,5.097,46.262,3.9,48.257,3.9h3.989c1.995,0,3.856,1.197,4.521,3.191  l5.319,14.495c0.532,1.596,0.133,3.324-0.931,4.654l6.516,17.686h28.989C98.656,43.927,100.252,45.522,100.252,47.517z   M12.353,51.108l3.192,9.175h13.563l-1.596-9.175H12.353z M20.464,74.378h11.037l-1.596-9.308H17.14L20.464,74.378z M25.385,88.474  h8.644l-1.596-9.308H22.06L25.385,88.474z M32.299,51.108l1.596,9.175h13.963v-9.175H32.299z M36.422,74.378h11.436v-9.308H34.826  L36.422,74.378z M37.22,79.166l1.729,9.308h8.91v-9.308H37.22z M37.885,43.927h24.734l-5.852-16.09  c-1.729-0.266-3.059-1.33-3.724-3.059l-2.792-7.713l-2.792,7.713c-0.665,1.729-1.995,2.792-3.723,3.059L37.885,43.927z   M66.608,60.282l1.596-9.175H52.646v9.175H66.608z M65.678,65.071H52.646v9.308h11.437L65.678,65.071z M52.646,88.474h8.909  l1.729-9.308H52.646V88.474z M78.976,79.166H68.071l-1.596,9.308h9.308L78.976,79.166z M83.63,65.071H70.598l-1.729,9.308h11.702  L83.63,65.071z M88.417,51.108H72.991l-1.596,9.175h13.963L88.417,51.108z"/></g><g id="SvgjsG1156" featureKey="textGroupContainer" transform="matrix(1,0,0,1,405,0)" fill="#000"><rect xmlns="http://www.w3.org/2000/svg" y="0" height="1" width="1" opacity="0"/><rect xmlns="http://www.w3.org/2000/svg" y="0" x="-320" width="3" height="82"/></g><g id="SvgjsG1157" featureKey="vMvB0T-0" transform="matrix(2.6779469126383812,0,0,2.6779469126383812,100.33166832054873,7.965416929415431)" fill="#000"><path d="M3.9 5.02 c-0.2 0 -0.4 0.02 -0.6 0.02 c-0.3 0 -0.66 -0.06 -0.72 0.34 c-0.2 1.7 -0.38 3.58 -0.58 5.28 c-0.34 2.8 -0.66 5.68 -0.98 8.48 c-0.04 0.38 -0.08 0.74 0.34 0.82 c0.64 0.04 1.12 0.04 1.66 0.02 c0.2 0.02 0.42 0.04 0.48 -0.2 c0.04 -0.1 0.04 -0.2 0.04 -0.3 c0.04 -0.46 0.64 -6.22 0.88 -6.22 c0.38 0 1.38 4.68 1.86 6.4 c0.06 0.24 0.18 0.34 0.42 0.32 c0.5 -0.04 0.98 0 1.48 0 s0.4 -0.32 0.5 -0.74 c0.12 -0.46 1.28 -6 1.56 -6 c0.32 0 0.98 6.42 1.04 6.56 c0.12 0.28 0.46 0.16 0.7 0.16 c0.36 0 0.7 0.04 1.16 0 c0.34 -0.04 0.68 0.08 0.7 -0.36 c0 -0.1 -0.04 -0.2 -0.06 -0.3 c-0.08 -0.5 -0.18 -1.1 -0.28 -1.6 c-0.14 -1.04 -0.34 -2.06 -0.48 -3.1 c-0.2 -1.64 -0.4 -3.28 -0.58 -4.92 c-0.14 -1.4 -0.34 -2.98 -0.46 -4.38 c-0.04 -0.46 -0.56 -0.3 -0.88 -0.3 l-1.38 0 c-0.22 0 -0.32 0.42 -0.36 0.64 c-0.12 0.56 -1.5 7.78 -1.96 7.78 s-1.94 -6.6 -2.2 -8.04 c-0.06 -0.32 -0.28 -0.42 -0.58 -0.42 z M17.68 19.84 c0.06 0.02 0.24 0.02 0.42 0.02 c0.4 0 0.52 -1.44 0.56 -1.74 c0.02 -0.24 0.08 -0.26 0.28 -0.3 c1 -0.12 1.5 -0.04 2.5 -0.02 c0.22 0 0.34 0.1 0.4 0.28 l0.14 0.46 c0.12 0.34 0.22 0.76 0.34 1.1 c0.08 0.24 0.1 0.22 0.34 0.22 c0.32 0 1.48 0 1.82 -0.02 c0.46 0 0.14 -0.94 0.08 -1.1 c-0.18 -0.56 -0.22 -1.14 -0.4 -1.7 c-0.08 -0.24 -2.36 -11.06 -2.46 -11.66 c-0.14 -0.36 -0.02 -0.38 -0.34 -0.38 c-0.68 0 -1.4 0.04 -2.1 0 c-0.28 0 -0.26 0.08 -0.3 0.38 c-0.04 0.28 -0.76 3.46 -1.04 4.78 c-0.36 1.66 -0.68 3.26 -1.08 4.9 c-0.14 0.58 -1.1 4.76 -0.98 4.78 c0.06 0.04 0.16 0.02 0.24 0.02 c0.5 0 0.96 0 1.58 -0.02 z M20.3 15.3 l-0.42 0 c-0.56 0 -0.58 0 -0.44 -0.58 c0.1 -0.44 0.64 -2.82 0.76 -3.4 c0.02 -0.04 0.06 -0.08 0.08 -0.08 c0.04 0 0.08 0.04 0.1 0.06 c0.08 0.24 0.16 0.84 0.24 1.08 c0.18 0.76 0.3 1.4 0.48 2.22 c0.18 0.72 0.1 0.72 -0.26 0.72 c-0.18 0 -0.36 -0.02 -0.54 -0.02 z M29.2 18.5 c0 -0.52 0 -3.8 0.02 -4.06 c0.02 -0.06 0.06 -0.18 0.14 -0.18 s0.12 0.04 0.14 0.1 c0.8 1.56 1.5 3.12 2.22 4.64 c0.1 0.22 0.32 0.86 0.38 0.92 c0.08 0.12 0.22 0.08 0.34 0.08 l2.2 0.02 c0.26 0 0.32 -0.16 0.26 -0.38 c-0.16 -0.6 -1.3 -2.72 -1.56 -3.24 c-0.18 -0.4 -1.38 -2.72 -1.42 -2.9 c-0.04 -0.08 0.26 -0.22 0.3 -0.28 c0.96 -0.86 1.82 -1.74 2 -3.08 c0.2 -1.32 -0.1 -2.76 -0.96 -3.82 c-0.66 -0.78 -1.52 -1.24 -2.54 -1.3 c-0.62 -0.04 -1.22 0.02 -1.84 0 c-0.54 -0.02 -0.92 -0.02 -1.6 -0.02 c-0.32 0 -0.52 0.18 -0.54 0.52 l0 0.24 c-0.04 1.54 0 3.08 0.02 4.6 c0 2.32 -0.04 8.44 -0.04 9.32 c0 0.26 0.04 0.32 0.28 0.32 c0.14 0 0.3 0.02 0.44 0.02 c0.56 0 0.9 -0.02 1.48 -0.02 c0.44 0 0.28 -0.72 0.28 -1.5 z M29.2 10.7 l0.02 -2.02 c0.02 -0.3 -0.08 -0.9 0.2 -1.12 c0.38 -0.28 1.16 0 1.5 0.24 c1 0.68 0.92 2.36 0.38 3.3 c-0.26 0.44 -0.7 0.7 -1.2 0.84 c-0.3 0.08 -0.86 0.18 -0.88 -0.3 c0 -0.32 -0.02 -0.94 -0.02 -0.94 z M39.64 16.38 c0 -0.7 -0.1 -2.6 -0.08 -3 c0 -0.06 0.04 -0.14 0.06 -0.14 c0.04 0 0.12 0.04 0.14 0.06 c0.64 0.84 3.64 6.66 4 6.68 c0.1 0.02 0.2 0.02 0.3 0.02 c0.68 -0.04 1.28 0 1.96 0 c0.7 0 0.24 -0.68 0.12 -0.86 c-0.18 -0.26 -2.56 -4.52 -2.7 -4.78 c-0.4 -0.68 -0.74 -1.42 -1.14 -2.08 c-0.04 -0.08 -0.08 -0.2 -0.06 -0.28 c0.04 -0.24 0.1 -0.46 0.2 -0.68 c0.48 -0.94 0.98 -1.9 1.56 -2.8 c0.64 -1.02 1 -1.66 1.52 -2.58 c0.12 -0.22 0.2 -0.46 0.28 -0.72 c0.02 -0.1 -0.06 -0.2 -0.18 -0.2 c-0.38 -0.02 -1.76 0 -2.2 0 c-0.2 0 -0.4 0.04 -0.5 0.22 c-0.26 0.5 -2.94 5.4 -3.2 5.84 c-0.02 0.04 -0.08 0.06 -0.14 0.06 c0 0 -0.04 -0.06 -0.04 -0.1 c-0.02 -1.12 0.18 -4.78 0.14 -5.52 c-0.02 -0.44 -0.1 -0.48 -0.54 -0.5 c-0.48 -0.02 -1.14 -0.02 -1.62 -0.02 c-0.44 0 -0.48 0.24 -0.54 0.56 c-0.02 0.06 -0.02 1.94 -0.02 2.78 c0 1.22 -0.1 8.86 0.04 11.28 c0 0.24 0.06 0.38 0.26 0.38 c0.54 -0.04 1.34 0 1.88 0 c0.38 0 0.44 -0.04 0.44 -0.68 c0 -0.86 0.08 -1.64 0.08 -2.7 c0 -0.08 -0.02 -0.16 -0.02 -0.24 z M48.42000000000001 15.9 l-0.02 0 c0 0.5 -0.02 1.02 0 1.54 c0.02 0.64 0.06 1.28 0.1 1.92 c0 0.22 0.06 0.28 0.26 0.32 c0.42 0.1 0.82 0.12 1.24 0.12 c1.08 -0.04 2.16 0.04 3.24 0 c0.44 -0.02 0.64 0.02 1.08 -0.06 c0.4 -0.08 0.54 -0.3 0.54 -0.9 c-0.04 -0.38 -0.02 -0.54 -0.02 -1 c0 -0.66 -0.46 -0.88 -0.86 -0.86 c-0.28 0.02 -1.62 -0.02 -2.16 -0.02 c-0.9 0.02 -0.76 0.14 -0.76 -0.8 c0 -0.76 0.02 -1.74 0.02 -2.52 c0 -0.42 0.04 -0.56 0.44 -0.56 l2.5 0 c0.4 0.06 0.68 -0.22 0.68 -0.64 s0.04 -0.44 0.04 -0.86 l-0.06 -0.6 c-0.04 -0.34 -0.16 -0.46 -0.5 -0.46 c-0.22 0 -0.44 0.02 -0.66 0.04 c-0.86 0.06 -1.26 -0.06 -2.1 0 c-0.28 0 -0.32 -0.04 -0.34 -0.3 c-0.08 -0.78 0 -1.64 0.08 -2.42 c0.02 -0.32 0.1 -0.38 0.4 -0.4 l2.82 -0.02 c0.38 -0.04 0.5 -0.02 0.48 -0.4 c-0.04 -0.58 0.02 -1.18 -0.04 -1.76 c-0.04 -0.32 -0.14 -0.38 -0.5 -0.38 c-0.6 0.02 -0.74 0.02 -1.34 0.06 c-0.6 0.02 -3 0.02 -3.58 0.02 c-0.84 0 -0.9 -0.06 -0.92 0.96 c-0.04 0.8 -0.02 1.62 -0.02 2.44 c0 1.4 -0.08 6.42 -0.04 7.54 z M59.400000000000006 17.82 c0.02 0.62 0.02 1.24 0.04 1.86 c0 0.28 0.02 0.32 0.3 0.32 l1.8 0 c0.38 0 0.3 -0.64 0.28 -0.98 l0.06 -11.2 c0 -0.3 0.1 -0.4 0.5 -0.4 l1.76 0 c0.42 0 0.32 -0.72 0.32 -1.22 c0 -0.44 0.16 -1.2 -0.32 -1.2 c-0.34 0 -3.6 0 -4.94 0.02 c-0.66 0 -1.2 -0.02 -1.86 -0.02 c-0.5 0 -0.48 0.4 -0.48 1.28 c0 0.56 -0.02 1.12 0.46 1.12 c0.28 0 1.42 0 1.74 0.02 c0.2 0 0.34 0.06 0.38 0.28 c0 0.06 0.02 0.12 0.02 0.18 c0 1.44 -0.1 8.14 -0.06 9.94 z M79.38000000000001 7.359999999999999 c0.02 -0.66 0 -1.2 0 -1.84 c0 -0.74 -1.34 -0.66 -1.82 -0.64 c-2.14 0.14 -4.18 1.5 -5.16 3.36 c-0.28 0.54 -0.48 1.1 -0.62 1.68 c-0.34 1.36 -0.36 2.8 -0.2 4.18 c0.14 1.3 0.48 2.6 1.28 3.64 c1.38 1.82 3.92 2.46 6.1 2.12 c0.1 -0.02 0.2 -0.04 0.28 -0.1 c0.06 -0.04 0.12 -0.12 0.12 -0.2 l0.06 -1.14 c0.02 -0.36 0 -0.34 0 -0.7 c0 -0.48 -1 -0.12 -1.62 -0.12 c-0.6 0 -1.24 -0.02 -1.78 -0.3 c-0.96 -0.54 -1.5 -1.62 -1.8 -2.64 c-0.34 -1.1 -0.42 -2.28 -0.22 -3.4 c0.24 -1.46 0.94 -3.14 2.48 -3.64 c0.88 -0.3 1.82 -0.2 2.7 -0.1 c0.12 0.02 0.2 -0.06 0.2 -0.16 z M81.42 6.960000000000001 c-0.02 1.24 0.1 10.3 0.08 10.96 c0 0.62 0 1.24 0.02 1.86 c0 0.1 0.06 0.2 0.16 0.2 c1.4 0.06 2.78 -0.06 4.18 -0.04 c0.46 0.02 0.92 0 1.36 0 c0.44 -0.02 0.48 -0.2 0.46 -0.56 c-0.02 -0.56 -0.02 -1.06 -0.02 -1.6 c-0.02 -0.28 -0.18 -0.38 -0.42 -0.38 c-0.82 0.02 -1.64 -0.02 -2.46 0.02 c-0.14 0.02 -0.28 0.02 -0.42 0.02 c-0.24 -0.02 -0.3 -0.08 -0.32 -0.34 l0 -0.3 c-0.06 -1.66 0.06 -3.38 0.06 -5.04 c-0.02 -1.4 0 -2.66 -0.02 -3.9 c0 -0.54 0 -1.08 -0.02 -1.6 c-0.02 -0.32 0 -0.66 -0.08 -0.98 c-0.04 -0.12 -0.1 -0.28 -0.24 -0.28 l-1.88 0 c-0.32 0 -0.42 0.22 -0.44 0.54 l0 1.42 z M89.68 8.28 c0 2.02 0.02 4.06 0.06 6.06 c0.02 1.22 0 2.6 0.58 3.72 c0.74 1.44 2.38 2.08 3.96 1.98 c1.08 -0.08 2.08 -0.36 2.86 -1.16 c1.32 -1.42 1.06 -3.64 1.08 -5.46 c0.04 -2.62 0.1 -5.06 0.1 -7.7 c0 -0.44 -0.14 -0.68 -0.58 -0.7 c-0.54 -0.02 -1.08 0 -1.62 0.04 c-0.22 0 -0.4 0.2 -0.4 0.44 c0.02 1.92 0.06 3.86 0.04 5.8 c-0.02 1.66 0.2 3.5 -0.42 5.08 c-0.24 0.58 -0.78 1.02 -1.42 1.02 c-1.6 -0.04 -1.54 -1.94 -1.6 -3.06 c-0.12 -2.44 0.06 -4.94 0.12 -7.38 c0 -0.46 0 -0.92 0.02 -1.38 c0.02 -0.24 0.06 -0.54 -0.26 -0.56 l-0.36 0 c-0.5 0.04 -1 -0.02 -1.5 0 c-0.48 0.04 -0.64 0.18 -0.64 0.66 c0 0.86 -0.02 1.74 -0.02 2.6 z M100.34 6.539999999999999 c0 0.96 -0.04 11.28 0 12.2 c0.02 0.22 0.02 0.44 0.02 0.66 c0 0.16 0.1 0.26 0.24 0.32 c0.12 0.04 0.28 0.08 0.4 0.08 c0.58 -0.06 1.2 0 1.8 -0.02 c1.04 0.08 1.98 -0.16 2.88 -0.64 c0.84 -0.48 1.3 -1.34 1.62 -2.24 c0.26 -0.76 0.22 -1.66 0.08 -2.44 c-0.12 -0.7 -0.44 -1.38 -0.86 -1.94 c-0.06 -0.08 -0.92 -0.62 -0.88 -0.66 c0.52 -0.74 1.26 -1.36 1.36 -2.28 c0.08 -0.8 -0.1 -1.62 -0.38 -2.36 c-0.18 -0.48 -0.42 -0.94 -0.8 -1.3 c-0.64 -0.6 -1.6 -0.86 -2.44 -0.94 c-0.86 -0.08 -1.66 -0.02 -2.52 -0.06 c-0.3 0 -0.44 0.12 -0.44 0.44 c0 0.42 -0.08 0.76 -0.08 1.18 z M102.80000000000001 10.18 c-0.02 -0.22 0 -1.98 -0.04 -2.64 c-0.02 -0.24 0.12 -0.36 0.38 -0.3 c0.2 0.04 0.36 0.06 0.52 0.18 c0.5 0.38 0.88 0.84 0.9 1.48 c0 0.32 0 0.64 -0.12 0.94 c-0.14 0.36 -0.34 0.64 -0.7 0.82 c-0.24 0.12 -0.46 0.26 -0.7 0.36 c-0.12 0.04 -0.24 -0.02 -0.26 -0.14 c0 -0.24 0.02 -0.7 0.02 -0.7 z M104.80000000000001 15.48 c0 0.1 -0.02 0.28 -0.02 0.46 c-0.02 0.6 -0.8 1.36 -1.7 1.38 c-0.06 0 -0.16 -0.06 -0.18 -0.12 c-0.04 -0.12 -0.08 -0.26 -0.08 -0.4 c-0.02 -0.62 0 -1.22 0 -1.88 c0.06 -0.42 0.02 -0.86 0.02 -1.3 c0.02 -0.34 0.1 -0.4 0.42 -0.46 c0.48 -0.06 0.92 0.14 1.14 0.52 c0.26 0.46 0.36 0.96 0.4 1.48 l0 0.32 z"/></g>
			</g>
		</svg>
	