<svg width="116" height="116" viewBox="0 0 116 116" fill="none" xmlns="http://www.w3.org/2000/svg">
<path d="M107.944 19.1853L93.4445 4.68525C92.7643 4.00506 91.8417 3.62292 90.8798 3.62292C89.9178 3.62292 88.9953 4.00506 88.3151 4.68525C87.6349 5.36545 87.2528 6.288 87.2528 7.24994C87.2528 8.21188 87.6349 9.13443 88.3151 9.81463L88.9857 10.4807L63.9868 29.231L46.6684 32.6974C45.9671 32.8379 45.3227 33.1814 44.8151 33.6853L7.05166 71.4396C5.01236 73.4791 3.8667 76.2451 3.8667 79.1292C3.8667 82.0133 5.01236 84.7793 7.05166 86.8187L25.811 105.578C27.8505 107.617 30.6165 108.763 33.5006 108.763C36.3847 108.763 39.1507 107.617 41.1901 105.578L78.9445 67.8282C79.4494 67.3215 79.7931 66.6766 79.9323 65.9749L83.3987 48.6565L102.149 23.6576L102.815 24.3282C103.152 24.665 103.552 24.9322 103.992 25.1145C104.432 25.2967 104.903 25.3906 105.38 25.3906C105.856 25.3906 106.328 25.2967 106.768 25.1145C107.208 24.9322 107.608 24.665 107.944 24.3282C108.281 23.9914 108.548 23.5916 108.731 23.1515C108.913 22.7115 109.007 22.2398 109.007 21.7635C109.007 21.2872 108.913 20.8156 108.731 20.3755C108.548 19.9355 108.281 19.5356 107.944 19.1988V19.1853ZM40.1298 48.6248L64.0049 72.4999L43.7548 92.7501L19.8796 68.8749L40.1298 48.6248ZM33.5006 101.5C33.0249 101.501 32.5538 101.408 32.1143 101.226C31.6749 101.044 31.2759 100.777 30.9404 100.44L12.1901 81.6893C11.5108 81.0096 11.1292 80.0879 11.1292 79.1269C11.1292 78.1659 11.5108 77.2442 12.1901 76.5645L14.7548 73.9998L38.6299 97.8749L36.0517 100.44C35.3746 101.116 34.4576 101.497 33.5006 101.5ZM77.1048 44.9499C76.7795 45.3822 76.5564 45.8826 76.4523 46.4135L73.0403 63.4646L69.1298 67.3751L45.2546 43.4999L49.1651 39.5895L66.2162 36.1774C66.7471 36.0733 67.2475 35.8502 67.6798 35.5249L94.1649 15.6599L96.9698 18.4648L77.1048 44.9499Z" fill="black"/>
</svg>
