<svg width="120" height="120" viewBox="0 0 120 120" fill="none" xmlns="http://www.w3.org/2000/svg">
<path fill-rule="evenodd" clip-rule="evenodd" d="M62.75 6.25C59.725 6.25 56.94 7 53.895 8.26C50.95 9.48 47.53 11.275 43.275 13.51L32.935 18.935C27.71 21.675 23.535 23.87 20.3 26.025C16.96 28.26 14.38 30.61 12.505 33.795C10.635 36.97 9.795 40.41 9.39 44.505C9 48.48 9 53.365 9 59.515V60.485C9 66.635 9 71.52 9.39 75.495C9.795 79.595 10.64 83.03 12.505 86.205C14.38 89.39 16.955 91.74 20.305 93.975C23.53 96.13 27.71 98.325 32.935 101.065L43.275 106.49C47.53 108.725 50.95 110.52 53.895 111.74C56.945 113 59.725 113.75 62.75 113.75C65.775 113.75 68.56 113 71.605 111.74C74.55 110.52 77.97 108.725 82.225 106.49L92.565 101.07C97.79 98.325 101.965 96.13 105.195 93.975C108.545 91.74 111.12 89.39 112.995 86.205C114.865 83.03 115.705 79.59 116.11 75.495C116.5 71.52 116.5 66.635 116.5 60.49V59.51C116.5 53.365 116.5 48.48 116.11 44.505C115.705 40.405 114.86 36.97 112.995 33.795C111.12 30.61 108.545 28.26 105.195 26.025C101.97 23.87 97.79 21.675 92.565 18.935L82.225 13.51C77.97 11.275 74.55 9.48 71.605 8.26C68.555 7 65.775 6.25 62.75 6.25ZM46.6 20.23C51.05 17.895 54.17 16.265 56.76 15.195C59.28 14.15 61.055 13.75 62.75 13.75C64.45 13.75 66.22 14.15 68.74 15.195C71.33 16.265 74.445 17.895 78.895 20.23L88.895 25.48C94.345 28.335 98.17 30.35 101.035 32.26C102.445 33.205 103.55 34.08 104.45 34.96L87.795 43.285L45.295 20.915L46.6 20.23ZM37.475 25.02L36.605 25.48C31.155 28.335 27.33 30.35 24.47 32.26C23.2506 33.0524 22.1073 33.9563 21.055 34.96L62.75 55.81L79.535 47.41L38.505 25.82C38.1202 25.6115 37.7723 25.3412 37.475 25.02ZM17.44 41.535C17.19 42.605 16.995 43.82 16.855 45.235C16.505 48.805 16.5 53.32 16.5 59.705V60.29C16.5 66.68 16.5 71.195 16.855 74.76C17.2 78.245 17.855 80.5 18.97 82.4C20.08 84.285 21.685 85.88 24.47 87.74C27.33 89.65 31.155 91.665 36.605 94.52L46.605 99.77C51.055 102.105 54.17 103.735 56.76 104.805C57.5733 105.142 58.32 105.417 59 105.63V62.315L17.44 41.535ZM66.5 105.625C67.18 105.415 67.9267 105.142 68.74 104.805C71.33 103.735 74.445 102.105 78.895 99.77L88.895 94.52C94.345 91.66 98.17 89.65 101.035 87.74C103.815 85.88 105.42 84.285 106.535 82.4C107.65 80.5 108.3 78.25 108.645 74.76C108.995 71.195 109 66.68 109 60.295V59.71C109 53.32 109 48.805 108.645 45.24C108.527 43.9957 108.332 42.7599 108.06 41.54L91.5 49.815V65C91.5 65.9946 91.1049 66.9484 90.4017 67.6516C89.6984 68.3549 88.7446 68.75 87.75 68.75C86.7554 68.75 85.8016 68.3549 85.0983 67.6516C84.3951 66.9484 84 65.9946 84 65V53.57L66.5 62.32V105.625Z" fill="black"/>
</svg>
