<svg width="120" height="120" viewBox="0 0 120 120" fill="none" xmlns="http://www.w3.org/2000/svg">
<path d="M87.5 42.5C87.5 25.9325 75.1875 12.5 60 12.5C44.8125 12.5 32.5 25.9325 32.5 42.5M12.5 42.5H107.5L97 107.5H23L12.5 42.5Z" stroke="black" stroke-width="8" stroke-linecap="round" stroke-linejoin="round"/>
<path d="M42.5 70C45.2614 70 47.5 67.7614 47.5 65C47.5 62.2386 45.2614 60 42.5 60C39.7386 60 37.5 62.2386 37.5 65C37.5 67.7614 39.7386 70 42.5 70Z" fill="black"/>
<path d="M45 82.5C45 82.5 50 90 60 90C70 90 75 82.5 75 82.5" stroke="black" stroke-width="8" stroke-linecap="round" stroke-linejoin="round"/>
<path d="M77.5 70C80.2614 70 82.5 67.7614 82.5 65C82.5 62.2386 80.2614 60 77.5 60C74.7386 60 72.5 62.2386 72.5 65C72.5 67.7614 74.7386 70 77.5 70Z" fill="black"/>
</svg>
